Coordinates
version=1
nRows=27
nColumns=12
inDegrees=yes

Units are S.I. units (second, meters, Newtons, ...)
Angles are in degrees

endheader
time	SC_y	SC_z	SC_x	AC_y	AC_z	AC_x	GH_y	GH_z	GH_yy	EL_x	PS_y
       0.0              -23.45          27.28          31.74          46.61          6.882          4.665         -117.1          64.09          53.14          120.5          20.73
  0.007324              -23.44          27.28          31.75          46.61          6.881          4.664         -117.1          64.08          53.11          120.5          20.73
   0.01465              -23.44          27.27          31.76          46.61           6.88          4.663         -117.1          64.08          53.08          120.5          20.73
   0.02197              -23.44          27.27          31.77          46.61          6.879          4.662         -117.1          64.07          53.05          120.5          20.73
   0.02929              -23.44          27.27          31.78          46.61          6.878           4.66         -117.0          64.06          53.02          120.4          20.74
   0.03662              -23.44          27.27          31.79          46.61          6.877          4.659         -117.0          64.05          52.99          120.4          20.74
   0.04394              -23.44          27.26           31.8          46.61          6.876          4.658         -116.9          64.05          52.95          120.4          20.74
   0.05126              -23.44          27.26          31.81          46.61          6.874          4.656         -116.9          64.04          52.91          120.4          20.74
   0.05859              -23.43          27.26          31.82           46.6          6.873          4.655         -116.9          64.03          52.87          120.4          20.75
   0.06591              -23.43          27.25          31.83           46.6          6.871          4.653         -116.8          64.01          52.82          120.4          20.75
   0.07324              -23.43          27.25          31.85           46.6           6.87          4.651         -116.8           64.0          52.78          120.4          20.75
   0.08056              -23.43          27.25          31.86           46.6          6.868          4.649         -116.7          63.99          52.72          120.4          20.76
   0.08788              -23.43          27.24          31.88           46.6          6.866          4.647         -116.6          63.98          52.67          120.3          20.76
   0.09521              -23.42          27.24          31.89           46.6          6.864          4.645         -116.6          63.96          52.61          120.3          20.76
    0.1025              -23.42          27.23          31.91          46.59          6.862          4.642         -116.5          63.95          52.54          120.3          20.77
    0.1099              -23.42          27.23          31.93          46.59          6.859           4.64         -116.4          63.93          52.47          120.3          20.77
    0.1172              -23.41          27.22          31.95          46.59          6.857          4.637         -116.3          63.91          52.39          120.3          20.78
    0.1245              -23.41          27.22          31.98          46.59          6.854          4.634         -116.3          63.89          52.31          120.2          20.78
    0.1318              -23.41          27.21           32.0          46.59          6.851           4.63         -116.2          63.87          52.22          120.2          20.79
    0.1391               -23.4           27.2          32.03          46.58          6.848          4.626         -116.1          63.84          52.12          120.2           20.8
    0.1465               -23.4          27.19          32.06          46.58          6.844          4.622         -115.9          63.82          52.01          120.2           20.8
    0.1538              -23.39          27.18           32.1          46.58           6.84          4.618         -115.8          63.79          51.88          120.1          20.81
    0.1611              -23.39          27.17          32.14          46.57          6.835          4.612         -115.7          63.75          51.75          120.1          20.82
    0.1684              -23.38          27.16          32.18          46.57           6.83          4.607         -115.5          63.72           51.6          120.0          20.83
    0.1758              -23.37          27.15          32.23          46.56          6.825          4.601         -115.3          63.68          51.44          120.0          20.84
    0.1831              -23.36          27.14          32.28          46.56          6.819          4.594         -115.1          63.63          51.25          119.9          20.86
    0.1904              -23.35          27.12          32.34          46.55          6.812          4.586         -114.9          63.58          51.04          119.9          20.87
